<svg width="10" height="10" viewBox="0 0 10 10" fill="none" xmlns="http://www.w3.org/2000/svg">
<path d="M5.38279 5.80036H5.38227C4.44314 5.80036 3.46514 6.00462 2.44775 6.41367C1.43036 6.82245 0.921661 7.35723 0.921661 8.01801V9.14001H9.8434V8.01801C9.8434 7.35723 9.3347 6.82245 8.31731 6.41367C7.29992 6.00462 6.32192 5.80036 5.38279 5.80036ZM5.38279 4.67836C5.99166 4.67836 6.5134 4.46106 6.94827 4.02619C7.38314 3.59132 7.60044 3.06958 7.60044 2.46071C7.60044 1.85184 7.38314 1.32567 6.94827 0.882449C6.5134 0.438971 5.99166 0.217232 5.38279 0.217232C4.77392 0.217232 4.25218 0.438971 3.81731 0.882449C3.38244 1.32567 3.16514 1.85184 3.16514 2.46071C3.16514 3.06958 3.38244 3.59132 3.81731 4.02619C4.25218 4.46106 4.77392 4.67836 5.38279 4.67836Z" fill="#888888"/>
</svg>
