<svg width="13" height="17" viewBox="0 0 13 17" fill="none" xmlns="http://www.w3.org/2000/svg">
<path d="M9.59909 12.5283H9.59984H3.26443V7.75815C3.26443 6.73927 3.5499 5.88846 4.1212 5.20536C4.69288 4.52188 5.46282 4.18051 6.43176 4.18051C7.40071 4.18051 8.17064 4.52188 8.74232 5.20536C9.31362 5.88846 9.59909 6.73927 9.59909 7.75815V12.5283ZM11.2019 11.7077H11.2027V7.75741C11.2034 6.51492 10.8867 5.43418 10.2528 4.51517C9.61884 3.59617 8.74307 2.99989 7.62505 2.72635V2.16735C7.62505 1.8435 7.51325 1.56399 7.28965 1.32884C7.06605 1.09331 6.78021 0.975545 6.43251 0.974799C6.0848 0.974426 5.79934 1.09219 5.57536 1.32884C5.35176 1.56511 5.23996 1.84461 5.23996 2.16735V2.72635C4.12158 2.99989 3.2458 3.59617 2.61226 4.51517C1.97909 5.43418 1.66232 6.51492 1.66232 7.75741V11.7077L0.0594635 13.3106V14.0928H12.8048V13.3106L11.2019 11.7077ZM6.43176 16.4779H6.43251C6.85511 16.4779 7.22741 16.3225 7.55052 16.0121C7.87325 15.7016 8.03462 15.3349 8.03462 14.9127H4.82965C4.82965 15.3349 4.99102 15.7016 5.31375 16.0121C5.63685 16.3225 6.00915 16.4779 6.43176 16.4779Z" fill="#777777"/>
</svg>
