<svg width="15" height="14" viewBox="0 0 15 14" fill="none" xmlns="http://www.w3.org/2000/svg">
<path id="Vector" d="M13.2601 13.75L8.53506 9.025C8.16006 9.325 7.72881 9.5625 7.24131 9.7375C6.75381 9.9125 6.23506 10 5.68506 10C4.32256 10 3.16956 9.5282 2.22606 8.5847C1.28206 7.64075 0.810059 6.4875 0.810059 5.125C0.810059 3.7625 1.28206 2.60925 2.22606 1.66525C3.16956 0.72175 4.32256 0.25 5.68506 0.25C7.04756 0.25 8.20081 0.72175 9.14476 1.66525C10.0883 2.60925 10.5601 3.7625 10.5601 5.125C10.5601 5.675 10.4726 6.19375 10.2976 6.68125C10.1226 7.16875 9.88506 7.6 9.58506 7.975L14.3101 12.7L13.2601 13.75ZM5.68506 8.5C6.62256 8.5 7.41956 8.172 8.07606 7.516C8.73206 6.8595 9.06006 6.0625 9.06006 5.125C9.06006 4.1875 8.73206 3.3905 8.07606 2.734C7.41956 2.078 6.62256 1.75 5.68506 1.75C4.74756 1.75 3.95056 2.078 3.29406 2.734C2.63806 3.3905 2.31006 4.1875 2.31006 5.125C2.31006 6.0625 2.63806 6.8595 3.29406 7.516C3.95056 8.172 4.74756 8.5 5.68506 8.5Z" fill="#A5A5A5"/>
</svg>
